<svg width="231" height="89" viewBox="0 0 231 89" fill="none" xmlns="http://www.w3.org/2000/svg">
<g clip-path="url(#clip0_1_2)">
<path d="M28.949 51.223L26.817 47.813C26.7711 47.6959 26.6988 47.591 26.6059 47.5062C26.5129 47.4214 26.4018 47.3591 26.281 47.324C26.1596 47.3057 26.0355 47.316 25.9188 47.3542C25.8021 47.3924 25.6961 47.4574 25.609 47.544C23.5771 49.138 21.0581 49.9834 18.476 49.938C14.143 49.938 11.657 47.367 11.657 42.884V31.594C11.657 27.208 14.19 24.594 18.431 24.594C20.8444 24.592 23.1925 25.3781 25.1181 26.833C25.2245 26.9146 25.3474 26.9724 25.4782 27.0022C25.609 27.0321 25.7446 27.0334 25.876 27.006C25.9803 26.9695 26.0758 26.9116 26.1564 26.836C26.237 26.7604 26.3009 26.6687 26.344 26.567L28.491 23.131C28.6321 22.9361 28.6912 22.6937 28.6557 22.4558C28.6201 22.2178 28.4929 22.0032 28.301 21.858C25.4694 19.6766 22.0042 18.4767 18.4299 18.44C12.5789 18.44 5.59901 21.758 5.59901 31.432V42.923C5.59901 52.549 12.346 56.094 18.522 56.094C22.2753 56.2206 25.9433 54.9567 28.822 52.545C29.0041 52.3801 29.118 52.1531 29.1415 51.9086C29.165 51.6641 29.0963 51.4196 28.949 51.223V51.223Z" fill="white"/>
<path d="M90.143 50.681C91.6056 50.6925 93.0634 50.5119 94.4791 50.144C94.6597 50.0932 94.8187 49.9846 94.9319 49.8349C95.0451 49.6853 95.1063 49.5027 95.106 49.315V35.868C95.1054 35.6487 95.0446 35.4337 94.9304 35.2465C94.8161 35.0592 94.6528 34.9069 94.4581 34.806C93.0866 34.1221 91.5703 33.7791 90.038 33.806C86.238 33.806 84.072 35.558 84.072 39.592V44.466C84.072 49.031 86.343 50.677 90.143 50.677V50.681ZM95.107 19.756C95.107 19.316 95.462 19.127 95.899 19.127H100.362C100.8 19.127 101.155 19.227 101.155 19.844V53.612C101.152 53.7212 101.114 53.8266 101.046 53.912C100.916 54.0428 100.753 54.1373 100.575 54.186C97.1766 55.4081 93.5981 56.0543 89.987 56.098C83.018 56.098 78.027 52.487 78.027 44.418V39.597C78.027 32.697 82.754 28.343 89.407 28.343C91.3663 28.3444 93.3051 28.7417 95.107 29.511V19.756Z" fill="white"/>
<path d="M117.797 19.133H106.882C106.793 19.1237 106.703 19.1342 106.619 19.1637C106.534 19.1931 106.457 19.2409 106.393 19.3036C106.329 19.3662 106.28 19.4422 106.249 19.5261C106.218 19.6101 106.205 19.6998 106.213 19.789V55.144C106.213 55.2193 106.243 55.2916 106.296 55.3448C106.349 55.3981 106.422 55.428 106.497 55.428H111.897C111.994 55.428 112.086 55.3896 112.154 55.3214C112.223 55.2531 112.261 55.1605 112.261 55.064V45.693C112.261 45.6201 112.275 45.548 112.303 45.4808C112.331 45.4135 112.372 45.3524 112.424 45.3009C112.475 45.2494 112.536 45.2087 112.604 45.1809C112.671 45.1531 112.743 45.1389 112.816 45.139H117.507C121.636 45.139 124.807 43.915 126.927 41.739C129.047 39.563 130.648 36.712 130.648 31.924C130.757 28.9357 129.955 25.9848 128.348 23.463C126.337 20.589 123.753 19.133 117.797 19.133ZM118.142 39.306H112.814C112.667 39.306 112.526 39.2475 112.422 39.1434C112.317 39.0393 112.259 38.8982 112.259 38.751V25.521C112.259 25.4481 112.273 25.376 112.301 25.3086C112.329 25.2413 112.37 25.1801 112.422 25.1286C112.473 25.077 112.534 25.0361 112.602 25.0082C112.669 24.9803 112.741 24.966 112.814 24.966H118.435C119.225 24.8973 120.021 25.0009 120.767 25.2696C121.514 25.5382 122.193 25.9655 122.758 26.522C123.86 27.7745 124.426 29.41 124.334 31.076C124.488 33.1019 123.95 35.12 122.807 36.8C122.268 37.5421 121.569 38.1527 120.761 38.5864C119.953 39.02 119.057 39.2653 118.141 39.304L118.142 39.306Z" fill="white"/>
<path d="M47.348 34.913C47.2149 35.0466 47.0357 35.1245 46.8472 35.1309C46.6586 35.1372 46.4748 35.0714 46.333 34.947C45.2957 34.172 44.0274 33.7693 42.7331 33.804C40.6871 33.804 38.433 35.339 38.433 38.715V54.638C38.4331 54.7417 38.4128 54.8443 38.3732 54.9401C38.3336 55.0359 38.2755 55.1229 38.2022 55.1962C38.1289 55.2695 38.0419 55.3276 37.9461 55.3672C37.8503 55.4068 37.7476 55.4271 37.6439 55.427H33.151C33.0473 55.4271 32.9446 55.4068 32.8488 55.3672C32.7529 55.3276 32.6658 55.2695 32.5924 55.1963C32.5191 55.123 32.4609 55.0359 32.4212 54.9402C32.3815 54.8444 32.361 54.7417 32.361 54.638V29.407C32.361 29.3033 32.3815 29.2005 32.4212 29.1047C32.4609 29.0088 32.5191 28.9217 32.5924 28.8484C32.6658 28.775 32.7528 28.7168 32.8487 28.6771C32.9445 28.6374 33.0473 28.617 33.151 28.617H37.49C37.5938 28.617 37.6965 28.6374 37.7924 28.6771C37.8882 28.7168 37.9752 28.775 38.0486 28.8484C38.122 28.9217 38.1802 29.0088 38.2199 29.1047C38.2596 29.2005 38.2801 29.3033 38.2801 29.407V31.175C39.1361 30.2577 40.1741 29.5291 41.3278 29.0357C42.4815 28.5424 43.7254 28.2952 44.98 28.31C46.9935 28.2435 48.9554 28.9551 50.458 30.297C50.5512 30.3739 50.6274 30.4693 50.6819 30.5771C50.7364 30.6849 50.7679 30.8028 50.7746 30.9235C50.7812 31.0441 50.7629 31.1648 50.7206 31.2779C50.6783 31.3911 50.6131 31.4943 50.529 31.581L47.348 34.913Z" fill="white"/>
<path d="M155.386 53.767V38.692C155.386 31.998 151.373 28.311 144.357 28.311C140.734 28.1838 137.153 29.1294 134.065 31.029C133.889 31.168 133.823 31.349 134.094 31.774L136.205 35.264C136.247 35.3426 136.306 35.4109 136.377 35.4639C136.449 35.5169 136.532 35.5533 136.619 35.5704C136.706 35.5876 136.797 35.585 136.883 35.563C136.969 35.541 137.05 35.5 137.118 35.443C139.211 34.315 141.557 33.7402 143.934 33.773C147.807 33.773 149.316 35.262 149.316 39.086V39.837L149.201 39.822C147.456 39.5737 145.697 39.4358 143.934 39.409C136.65 39.409 132.896 42.383 132.896 47.571C132.896 55.264 140.636 56.095 144.145 56.095C147.776 56.0695 151.386 55.5494 154.876 54.549C155.032 54.4885 155.165 54.3804 155.257 54.2401C155.348 54.0998 155.394 53.9343 155.386 53.767V53.767ZM149.315 49.758C149.317 49.8514 149.286 49.9426 149.228 50.0157C149.17 50.0888 149.088 50.1391 148.996 50.158C147.401 50.5071 145.776 50.6971 144.144 50.725C140.524 50.725 138.871 49.784 138.871 47.525C138.871 45.198 140.346 44.018 144.092 44.018C145.727 44.0409 147.358 44.1675 148.977 44.397C149.071 44.4094 149.157 44.4557 149.219 44.5271C149.282 44.5986 149.316 44.6903 149.315 44.785V49.758Z" fill="white"/>
<path d="M74.32 40.338C74.32 36.367 73.3671 33.267 71.4881 31.289C69.6091 29.311 66.7979 28.312 63.1279 28.312C59.1489 28.312 56.18 29.512 54.303 31.893C52.426 34.274 51.46 38.051 51.46 42.93C51.46 47.592 52.3701 50.925 54.1651 52.993C55.9601 55.061 58.913 56.093 62.965 56.093C66.3579 56.0355 69.7325 55.5817 73.02 54.741C73.1459 54.7103 73.2574 54.6376 73.3363 54.5348C73.4152 54.4321 73.4568 54.3055 73.454 54.176L73.375 50.606C73.3743 50.5425 73.3606 50.4798 73.3346 50.4218C73.3086 50.3638 73.271 50.3118 73.224 50.269C73.1787 50.2278 73.1254 50.1963 73.0674 50.1765C73.0094 50.1567 72.948 50.149 72.887 50.154C71.499 50.272 69.619 50.422 68.543 50.47C67.843 50.5 67.1531 50.553 66.4981 50.603C65.6381 50.668 64.8249 50.73 64.1539 50.73C62.9603 50.7687 61.7675 50.6291 60.615 50.316C59.8035 50.0848 59.1139 49.5468 58.692 48.816C58.3432 48.0005 58.1868 47.1157 58.235 46.23C58.235 45.389 58.335 45.13 58.735 45.13H73.198C73.4549 45.1291 73.7013 45.0281 73.885 44.8485C74.0687 44.6689 74.1753 44.4248 74.182 44.168L74.32 40.338ZM67.57 39.899C67.5166 39.9549 67.4526 39.9995 67.3816 40.0301C67.3106 40.0607 67.2343 40.0767 67.157 40.077H58.71C58.635 40.0769 58.5608 40.0614 58.492 40.0314C58.4232 40.0015 58.3612 39.9578 58.31 39.903C58.2575 39.8473 58.2166 39.7818 58.1895 39.7102C58.1624 39.6387 58.1496 39.5625 58.152 39.486C58.0946 37.9747 58.4962 36.4816 59.304 35.203C59.7848 34.6987 60.3743 34.3106 61.0275 34.068C61.6807 33.8255 62.3805 33.7348 63.074 33.803C63.7433 33.732 64.4201 33.8167 65.0513 34.0504C65.6825 34.284 66.2512 34.6603 66.713 35.15C67.4798 36.4543 67.8362 37.9593 67.736 39.469C67.738 39.5481 67.7244 39.6268 67.6959 39.7006C67.6674 39.7744 67.6246 39.8418 67.57 39.899V39.899Z" fill="white"/>
<path fill-rule="evenodd" clip-rule="evenodd" d="M166.656 11.3073C172.734 7.55956 179.734 5.57528 186.875 5.57602C193.85 5.57634 200.693 7.46989 206.676 11.0547C212.658 14.6395 217.556 19.7812 220.845 25.9311C224.135 32.0811 225.694 39.0087 225.355 45.9749C225.016 52.9412 222.792 59.6848 218.921 65.4864C215.05 71.288 209.677 75.93 203.375 78.9173C197.072 81.9045 190.077 83.1249 183.136 82.4483C176.194 81.7716 169.566 79.2234 163.959 75.0753C158.352 70.9272 153.977 65.3349 151.299 58.895C152.826 58.6379 154.336 58.2889 155.821 57.85L155.99 57.799L156.152 57.732C156.939 57.4121 157.611 56.8627 158.081 56.1552C158.551 55.4478 158.796 54.6152 158.786 53.766V38.692C158.786 33.199 156.476 29.061 152.456 26.799C155.662 20.4186 160.578 15.055 166.656 11.3073ZM213.223 34.9189C213.863 36.4042 214.164 38.0138 214.102 39.63C214.102 39.63 214.099 46.453 214.116 46.479C214.115 46.83 214.09 47.167 214.063 47.504C213.521 52.834 208.688 57.015 202.763 57.115C201.709 57.103 200.658 57.0101 199.618 56.837C197.187 56.3924 194.985 55.1208 193.385 53.2379C191.786 51.3549 190.886 48.9765 190.84 46.506V40.953C190.839 40.8681 190.862 40.7847 190.906 40.7122C190.951 40.6398 191.014 40.5811 191.09 40.543C191.477 40.3483 192.236 39.9505 193.085 39.5052C194.094 38.9759 195.232 38.3794 196.026 37.977C196.296 37.842 196.826 37.972 196.826 38.277C196.802 40.192 196.818 46.114 196.818 46.114C196.855 47.0589 197.121 47.9805 197.594 48.7991C198.068 49.6177 198.733 50.3084 199.534 50.8114C200.335 51.3145 201.246 51.6146 202.189 51.6858C203.132 51.757 204.078 51.5971 204.945 51.22C205.899 50.7572 206.701 50.0311 207.256 49.1275C207.811 48.2238 208.095 47.1802 208.076 46.12V39.567C208.076 38.1444 207.511 36.78 206.505 35.7741C205.499 34.7681 204.135 34.203 202.712 34.203H186.912V55.073C186.912 62.888 182.954 67.562 175.412 67.562C171.689 67.7109 168.032 66.5503 165.076 64.282C164.664 64.025 164.664 63.7 164.924 63.225L167.034 59.985C167.075 59.8873 167.139 59.801 167.221 59.7337C167.302 59.6664 167.399 59.6201 167.503 59.5989C167.607 59.5777 167.714 59.5822 167.816 59.612C167.917 59.6418 168.01 59.6961 168.086 59.77C170.072 61.2472 172.494 62.019 174.969 61.963C178.933 61.963 181.252 59.951 181.089 54.616C179.22 55.3753 177.223 55.7711 175.205 55.782C168.964 55.782 163.764 52.295 163.764 44.838V40.047C163.764 31.77 169.252 28.455 175.952 28.447H202.052C203.733 28.4316 205.405 28.6886 207.004 29.208C207.368 29.328 207.726 29.4689 208.074 29.63C208.415 29.78 208.75 29.951 209.064 30.13C209.532 30.402 209.979 30.7078 210.402 31.045C211.619 32.1101 212.583 33.4336 213.223 34.9189ZM175.62 50.385C177.633 50.385 179.869 49.955 180.875 49.112V34.44C179.263 34.0324 177.605 33.8364 175.943 33.857C172.297 33.857 169.797 35.121 169.797 39.665V44.89C169.797 49.058 172.394 50.385 175.62 50.385Z" fill="white"/>
</g>
<defs>
<clipPath id="clip0_1_2">
<rect width="231" height="88.201" fill="white"/>
</clipPath>
</defs>
</svg>
