<?xml version="1.0" encoding="utf-8"?>
<!-- Generator: Adobe Illustrator 24.0.1, SVG Export Plug-In . SVG Version: 6.00 Build 0)  -->
 <svg width="231" height="88.201" viewBox="0 0 231 88.201">
    <path
      id="Caminho_1299"
      data-name="Caminho 1299"
      d="M1299.063,294.528a43.884,43.884,0,0,0-38.753,23.058,21.8,21.8,0,0,0-3.813-.323,26.483,26.483,0,0,0-9.365,1.6,17,17,0,0,0-2.075-4.066c-3.289-4.705-7.812-6.712-15.119-6.712H1219.02a6.312,6.312,0,0,0-3.209.859,6.585,6.585,0,0,0-3.309-.859h-4.463a6.22,6.22,0,0,0-6.368,6.2v3.006h-.125a16.81,16.81,0,0,0-13.016,5.676q-.406-.517-.858-.994c-2.043-2.15-5.853-4.712-12.4-4.712a17.583,17.583,0,0,0-9.879,2.663,13.309,13.309,0,0,0-8.266-2.665,15.268,15.268,0,0,0-4.952.835,6.333,6.333,0,0,0-2.54-.528h-3.267a6.388,6.388,0,0,0-2.471-5.561,22.167,22.167,0,0,0-13.324-4.615c-8.864,0-18.406,5.81-18.406,18.568v11.492c0,7.646,3.323,12.075,6.11,14.445a19.069,19.069,0,0,0,12.389,4.3,21.716,21.716,0,0,0,10.277-2.4,6.343,6.343,0,0,0,4.354,1.726h4.493a6.373,6.373,0,0,0,6.366-6.365v-3.957h2.829a15.385,15.385,0,0,0,3.111,5.966c2.9,3.334,7.275,5.025,13.016,5.025a49.081,49.081,0,0,0,11.363-1.508,6.129,6.129,0,0,0,3.626-2.514,18.073,18.073,0,0,0,12.027,4.022,38.193,38.193,0,0,0,12.508-2.253,5.839,5.839,0,0,0,4,1.583h5.4a5.946,5.946,0,0,0,5.94-5.94v-4.35a19.848,19.848,0,0,0,9.5-2.347c.4,8.113,6.905,13.307,16.807,13.307.746,0,1.515-.023,2.293-.068a44.1,44.1,0,1,0,40.484-61.6Z"
      transform="translate(-1112.164 -294.528)"
      fill="none"
    />
    <g id="Grupo_1566" data-name="Grupo 1566" transform="translate(5.6 5.576)">
      <path
        id="Caminho_1300"
        data-name="Caminho 1300"
        d="M1296.979,300.028a38.515,38.515,0,0,0-34.419,21.223c4.02,2.262,6.33,6.4,6.33,11.893v15.074a4.226,4.226,0,0,1-2.634,3.966l-.162.067-.169.051a38.513,38.513,0,0,1-4.522,1.045,38.527,38.527,0,1,0,35.576-53.319Z"
        transform="translate(-1115.704 -300.028)"
        fill="#00b8f1"
      />
      <path
        id="Caminho_1301"
        data-name="Caminho 1301"
        d="M1141.037,345.5l-2.132-3.41a.822.822,0,0,0-.536-.489.786.786,0,0,0-.672.22,11.237,11.237,0,0,1-7.133,2.394c-4.333,0-6.819-2.571-6.819-7.054v-11.29c0-4.386,2.533-7,6.774-7a11.077,11.077,0,0,1,6.687,2.239.933.933,0,0,0,.758.173.793.793,0,0,0,.468-.439l2.147-3.436a.92.92,0,0,0-.19-1.273,16.451,16.451,0,0,0-9.871-3.418c-5.851,0-12.831,3.318-12.831,12.992V337.2c0,9.626,6.747,13.171,12.923,13.171a15.239,15.239,0,0,0,10.3-3.549A.986.986,0,0,0,1141.037,345.5Z"
        transform="translate(-1117.688 -299.853)"
        fill="#FFF"
      />
      <path
        id="Caminho_1302"
        data-name="Caminho 1302"
        d="M1201.245,344.948a16.717,16.717,0,0,0,4.336-.537.86.86,0,0,0,.627-.829V330.135a1.2,1.2,0,0,0-.648-1.062,9.53,9.53,0,0,0-4.42-1c-3.8,0-5.966,1.752-5.966,5.786v4.874c0,4.565,2.271,6.211,6.071,6.211m4.964-30.921c0-.44.355-.629.792-.629h4.463c.438,0,.793.1.793.717v33.768a.5.5,0,0,1-.109.3,1.059,1.059,0,0,1-.471.274,32.451,32.451,0,0,1-10.588,1.912c-6.969,0-11.96-3.611-11.96-11.68v-4.821c0-6.9,4.727-11.254,11.38-11.254a14.544,14.544,0,0,1,5.7,1.168Z"
        transform="translate(-1116.702 -299.843)"
        fill="#FFF"
      />
      <path
        id="Caminho_1303"
        data-name="Caminho 1303"
        d="M1228.515,313.4H1217.6a.608.608,0,0,0-.669.656v35.355a.284.284,0,0,0,.284.284h5.4a.364.364,0,0,0,.364-.364v-9.371a.554.554,0,0,1,.555-.554h4.691c4.129,0,7.3-1.224,9.42-3.4s3.721-5.027,3.721-9.815a14.742,14.742,0,0,0-2.3-8.461C1237.055,314.856,1234.471,313.4,1228.515,313.4Zm.345,20.173h-5.328a.555.555,0,0,1-.555-.555V319.788a.555.555,0,0,1,.555-.555h5.621a5.485,5.485,0,0,1,4.323,1.556,6.36,6.36,0,0,1,1.576,4.554,8.97,8.97,0,0,1-1.527,5.724A6.083,6.083,0,0,1,1228.859,333.571Z"
        transform="translate(-1116.318 -299.843)"
        fill="#FFF"
      />
      <path
        id="Caminho_1304"
        data-name="Caminho 1304"
        d="M1159.071,329.055a.742.742,0,0,1-1.015.034,5.757,5.757,0,0,0-3.6-1.143c-2.046,0-4.3,1.535-4.3,4.911V348.78a.788.788,0,0,1-.789.789h-4.493a.789.789,0,0,1-.79-.789V323.549a.79.79,0,0,1,.79-.79h4.339a.79.79,0,0,1,.79.79v1.768a9.019,9.019,0,0,1,6.7-2.865,7.836,7.836,0,0,1,5.478,1.987.875.875,0,0,1,.071,1.284Z"
        transform="translate(-1117.323 -299.718)"
        fill="#FFF"
      />
      <path
        id="Caminho_1305"
        data-name="Caminho 1305"
        d="M1265.74,347.909V332.834c0-6.694-4.013-10.381-11.029-10.381a18.411,18.411,0,0,0-10.292,2.718c-.176.139-.242.32.029.745l2.111,3.49a.6.6,0,0,0,.913.179,13.959,13.959,0,0,1,6.816-1.67c3.873,0,5.382,1.489,5.382,5.313v.751l-.115-.015a41.916,41.916,0,0,0-5.267-.413c-7.284,0-11.038,2.974-11.038,8.162,0,7.693,7.74,8.524,11.249,8.524a39.963,39.963,0,0,0,10.731-1.546A.8.8,0,0,0,1265.74,347.909Zm-6.071-4.009a.4.4,0,0,1-.319.4,24.656,24.656,0,0,1-4.852.567c-3.62,0-5.273-.941-5.273-3.2,0-2.327,1.475-3.507,5.221-3.507a38.666,38.666,0,0,1,4.885.379.389.389,0,0,1,.338.388Z"
        transform="translate(-1115.954 -299.718)"
        fill="#FFF"
      />
      <path
        id="Caminho_1306"
        data-name="Caminho 1306"
        d="M1185.783,334.48c0-3.971-.953-7.071-2.832-9.049s-4.69-2.977-8.36-2.977c-3.979,0-6.948,1.2-8.825,3.581s-2.843,6.158-2.843,11.037c0,4.662.91,7.995,2.705,10.063s4.748,3.1,8.8,3.1a43.566,43.566,0,0,0,10.055-1.352.569.569,0,0,0,.434-.565l-.079-3.57a.463.463,0,0,0-.151-.337.447.447,0,0,0-.337-.115c-1.388.118-3.268.268-4.344.316-.7.03-1.39.083-2.045.133-.86.065-1.673.127-2.344.127a12.015,12.015,0,0,1-3.539-.414,3.248,3.248,0,0,1-1.923-1.5,5.777,5.777,0,0,1-.457-2.586c0-.841.1-1.1.5-1.1h14.463a.988.988,0,0,0,.984-.962Zm-6.75-.439a.574.574,0,0,1-.413.178h-8.447a.549.549,0,0,1-.4-.174.582.582,0,0,1-.158-.417,7.487,7.487,0,0,1,1.152-4.283,4.589,4.589,0,0,1,3.77-1.4,4.369,4.369,0,0,1,3.639,1.347,7.537,7.537,0,0,1,1.023,4.319A.6.6,0,0,1,1179.033,334.041Z"
        transform="translate(-1117.063 -299.718)"
        fill="#FFF"
      />
      <path
        id="Caminho_1307"
        data-name="Caminho 1307"
        d="M1324.036,333.771a10.858,10.858,0,0,0-3.7-8.585,11.116,11.116,0,0,0-1.338-.915c-.314-.179-.649-.35-.99-.5a10,10,0,0,0-1.07-.422,15.563,15.563,0,0,0-4.952-.761h-26.1c-6.7.008-12.188,3.323-12.188,11.6v4.791c0,7.457,5.2,10.944,11.441,10.944a15.862,15.862,0,0,0,5.884-1.166c.163,5.335-2.156,7.347-6.12,7.347a11.112,11.112,0,0,1-6.883-2.193.649.649,0,0,0-1.052.215l-2.11,3.24c-.26.475-.26.8.152,1.057a15.932,15.932,0,0,0,10.336,3.28c7.542,0,11.5-4.674,11.5-12.489v-20.87h15.8a5.364,5.364,0,0,1,5.364,5.364l0,6.553a5.557,5.557,0,0,1-3.131,5.1,5.813,5.813,0,0,1-8.127-5.106s-.016-5.922.008-7.837c0-.305-.53-.435-.8-.3-1.462.741-4.089,2.14-4.936,2.566a.454.454,0,0,0-.25.41v5.553a10.706,10.706,0,0,0,8.778,10.331,20.58,20.58,0,0,0,3.145.278c5.925-.1,10.758-4.281,11.3-9.611.027-.337.052-.674.053-1.025C1324.033,340.594,1324.036,333.771,1324.036,333.771Zm-33.227,9.482c-1.006.843-3.242,1.273-5.255,1.273-3.226,0-5.823-1.327-5.823-5.495v-5.225c0-4.544,2.5-5.808,6.146-5.808a19.148,19.148,0,0,1,4.932.583Z"
        transform="translate(-1115.534 -299.717)"
        fill="#fff"
      />
    </g>
  </svg>